<?xml version="1.0" standalone="no"?>
<!DOCTYPE svg PUBLIC "-//W3C//DTD SVG 20010904//EN"
 "http://www.w3.org/TR/2001/REC-SVG-20010904/DTD/svg10.dtd">
<svg version="1.0" xmlns="http://www.w3.org/2000/svg"
 width="272.000000pt" height="272.000000pt" viewBox="0 0 272.000000 272.000000"
 preserveAspectRatio="xMidYMid meet">
<metadata>
Created by potrace 1.11, written by Peter Selinger 2001-2013
</metadata>
<g transform="translate(0.000000,272.000000) scale(0.100000,-0.100000)"
fill="#000000" stroke="none">
<path d="M1597 2684 c-4 -4 -60 -8 -124 -9 -112 -2 -265 -26 -288 -45 -6 -5
-35 -18 -66 -29 -30 -12 -65 -30 -76 -40 -12 -11 -24 -17 -27 -14 -3 4 -13 -2
-21 -13 -8 -10 -15 -14 -15 -9 0 6 -3 6 -8 0 -4 -6 -20 -18 -35 -28 -15 -10
-25 -22 -22 -27 3 -5 -9 -25 -27 -44 -50 -53 -58 -64 -58 -81 0 -8 -4 -15 -8
-15 -4 0 -16 -15 -27 -32 -18 -31 -16 -30 38 16 32 27 60 46 63 43 3 -3 -4
-10 -15 -17 -12 -6 -21 -15 -21 -21 0 -6 -11 -25 -25 -43 -30 -40 -93 -175
-110 -237 -11 -41 -10 -49 6 -70 18 -25 10 -49 -17 -49 -7 0 -15 -9 -19 -20
-7 -22 2 -149 16 -224 11 -59 11 -78 -1 -50 -4 11 -11 47 -16 80 -5 44 -9 54
-15 39 -5 -13 -8 0 -8 40 -1 63 -17 67 -23 5 -4 -35 -4 -35 -15 -10 -12 25
-12 25 -12 -8 -1 -18 -5 -31 -10 -28 -30 19 -23 -193 10 -310 l19 -69 -5 55
-5 55 18 -42 c9 -23 20 -45 25 -49 4 -4 7 -16 7 -27 0 -10 14 -39 32 -63 33
-46 46 -57 28 -24 -9 16 -8 19 6 13 13 -5 15 -3 9 7 -5 9 -4 11 4 6 6 -4 9
-12 5 -17 -7 -12 15 -41 27 -33 5 3 6 -2 3 -10 -3 -8 3 -19 15 -26 27 -14 26
-6 -8 61 -27 55 -35 119 -18 147 8 11 2 16 -17 13 -5 -1 -6 5 -2 14 3 9 1 23
-4 33 -23 42 -40 82 -35 82 3 0 18 -26 33 -57 15 -32 35 -69 44 -83 9 -14 19
-37 22 -53 2 -15 8 -37 11 -48 5 -14 3 -19 -3 -15 -6 3 -5 -4 1 -19 14 -29 37
-41 37 -20 0 8 -5 15 -11 15 -5 0 -7 5 -4 10 3 6 3 16 -2 23 -18 30 -11 36 25
19 21 -9 39 -18 42 -20 9 -6 -25 -22 -38 -17 -7 3 -10 0 -7 -6 4 -5 15 -7 25
-4 12 4 22 -1 29 -12 6 -10 11 -13 11 -8 0 6 -6 17 -12 24 -11 12 -10 13 6 7
18 -6 18 -5 2 19 -9 14 -12 25 -6 25 7 0 8 6 1 19 -8 14 -7 22 7 32 15 12 15
12 5 -1 -7 -10 -8 -21 -3 -30 5 -8 7 -17 4 -21 -6 -11 17 -25 68 -42 39 -13
46 -13 41 -1 -3 8 -8 14 -12 14 -4 0 -8 6 -8 13 0 8 6 14 13 14 7 0 10 -7 7
-16 -4 -14 -3 -14 7 -1 10 13 11 13 7 -2 -3 -9 0 -21 7 -27 11 -9 12 -6 8 15
-2 14 -15 32 -28 41 -13 8 -24 22 -24 30 0 8 -4 11 -10 8 -5 -3 -11 3 -11 14
-2 29 -3 33 -17 59 -13 22 -9 42 7 42 5 0 14 -21 21 -47 7 -27 14 -56 17 -65
2 -10 8 -18 12 -18 8 0 7 22 -4 70 -5 22 -4 22 6 -2 15 -38 31 -36 17 2 -5 17
-8 44 -6 60 3 17 1 30 -4 30 -20 0 -5 32 19 41 24 9 30 7 45 -11 19 -23 23
-45 11 -53 -5 -2 -2 -2 5 -1 6 2 12 -2 12 -8 0 -6 3 -9 6 -6 3 4 1 22 -4 42
-8 26 -7 38 1 43 13 8 80 13 73 5 -11 -11 15 -41 33 -37 15 3 18 -3 17 -28 -1
-22 3 -31 12 -29 8 1 11 -2 8 -7 -4 -5 5 -21 20 -34 l26 -24 -58 -7 c-77 -9
-125 -26 -146 -51 -22 -27 -16 -30 20 -11 27 14 31 14 36 0 4 -10 13 -14 24
-10 16 6 16 5 0 -7 -16 -12 -14 -14 11 -14 26 0 28 3 21 23 -10 26 -1 32 80
44 30 5 66 12 79 16 17 5 22 4 17 -4 -4 -7 -2 -12 3 -12 6 0 11 5 11 10 0 14
27 12 33 -2 3 -7 6 -1 6 15 1 15 -3 27 -7 27 -4 0 -8 9 -8 20 0 33 11 23 35
-32 l24 -53 6 30 c6 24 9 13 16 -50 8 -75 9 -78 16 -40 4 22 8 64 8 94 1 64
10 60 33 -17 16 -51 17 -53 15 -20 -1 20 2 40 6 44 4 4 8 -10 9 -32 1 -21 3
-52 4 -69 1 -16 2 -48 3 -69 0 -22 4 -36 8 -32 4 4 6 45 5 91 -1 51 2 86 9 90
6 4 8 24 5 49 -5 35 -4 37 4 16 8 -18 13 -21 19 -12 5 8 10 -7 14 -40 4 -34 3
-56 -5 -63 -8 -7 -9 -6 -6 5 3 8 2 24 -3 35 -6 17 -8 17 -8 3 -1 -10 -4 -18
-8 -18 -5 0 -8 -20 -8 -44 0 -24 2 -43 5 -41 3 2 3 -21 0 -51 l-6 -54 24 23
c14 12 31 37 38 54 17 39 28 44 13 7 -5 -15 -7 -29 -5 -32 3 -3 9 4 12 14 4
10 13 34 20 53 8 18 14 48 15 65 0 17 4 40 9 51 12 29 3 -115 -9 -148 -6 -15
-8 -27 -6 -27 10 0 35 61 35 85 0 16 4 24 11 20 6 -4 9 -1 8 6 -4 21 38 84 44
67 3 -7 6 3 6 22 1 33 20 82 21 53 0 -7 7 -13 16 -13 14 0 13 2 -1 17 -13 13
-16 27 -11 62 3 25 10 47 16 49 5 2 7 9 4 16 -3 8 2 16 12 20 14 5 15 4 4 -9
-10 -12 -10 -15 0 -15 9 0 7 -7 -6 -22 -10 -12 -14 -18 -8 -15 13 7 27 -19 19
-33 -3 -5 -1 -11 5 -15 6 -3 10 4 10 18 0 13 3 27 7 31 4 4 6 25 4 46 -1 24 2
40 8 40 6 0 12 -12 12 -27 l1 -28 7 27 c9 40 27 22 39 -37 6 -28 17 -77 25
-110 18 -68 14 -80 -44 -138 -22 -22 -36 -44 -32 -53 3 -8 0 -14 -7 -14 -6 0
-8 5 -5 10 10 16 -11 12 -25 -5 -7 -8 -18 -15 -25 -15 -7 0 -18 -6 -25 -14 -6
-8 -18 -12 -25 -10 -10 4 -14 -4 -13 -33 0 -21 -3 -51 -6 -68 -5 -22 -4 -26 4
-15 8 12 10 10 11 -10 1 -18 3 -20 6 -7 3 10 0 24 -6 30 -6 8 -6 18 0 27 7 11
11 12 17 3 5 -9 12 -6 21 10 12 19 12 20 0 10 -18 -14 -36 -4 -36 20 0 12 8
17 26 17 20 0 23 -2 11 -10 -12 -7 -10 -9 8 -7 26 2 26 1 7 21 -14 14 -13 17
14 31 16 8 32 12 35 7 5 -8 -68 -134 -75 -128 -2 2 -5 -11 -7 -30 -2 -28 -14
-47 -58 -89 -31 -30 -57 -55 -59 -55 -1 0 -49 -46 -106 -103 -94 -93 -129
-121 -265 -210 -59 -39 -80 -36 -106 18 -23 48 -35 56 -44 27 -3 -9 -16 -45
-30 -80 -28 -73 -31 -120 -8 -129 14 -5 15 -17 10 -73 -5 -49 -3 -79 8 -111 9
-24 16 -57 16 -74 1 -16 13 -77 28 -135 l27 -105 504 -3 c518 -2 541 -1 505
35 -8 8 -12 18 -9 22 4 7 63 20 107 24 9 1 15 4 12 8 -3 6 19 19 33 19 3 0 2
-25 -2 -55 l-6 -55 125 1 c74 0 126 5 126 10 0 6 5 7 10 4 6 -3 10 -2 10 4 0
5 -5 11 -12 13 -6 2 -12 11 -14 20 -1 11 3 15 12 11 11 -4 14 130 14 870 l0
875 -45 21 c-25 11 -60 21 -79 21 -19 0 -38 5 -41 10 -16 26 -85 1 -146 -54
-21 -19 -30 -23 -26 -12 4 10 7 27 7 37 0 11 5 17 10 14 6 -4 7 -11 4 -17 -4
-6 -3 -9 2 -5 13 7 -5 258 -21 298 -3 10 -2 20 4 24 6 3 11 12 11 18 0 8 -3 8
-9 -1 -6 -10 -13 -5 -25 20 -44 83 -49 93 -56 98 -3 3 -15 19 -27 35 -28 41
-173 189 -178 183 -5 -4 8 -23 52 -76 13 -15 23 -32 23 -38 0 -6 7 -17 15 -24
8 -7 15 -18 14 -24 0 -6 -7 -1 -15 11 -16 22 -50 21 -37 -1 4 -8 2 -8 -7 1 -7
6 -18 9 -25 7 -7 -3 -23 7 -35 23 -12 15 -28 28 -35 28 -7 0 -22 8 -33 18 -11
10 -36 19 -56 20 -20 1 -36 5 -36 10 0 4 5 7 10 7 13 0 13 33 0 46 -7 7 -7 20
-2 34 l9 23 21 -21 c12 -12 22 -18 22 -13 0 17 -121 101 -158 109 -20 5 -58
14 -85 20 -26 7 -59 12 -73 12 -14 0 -23 4 -19 10 7 11 -47 14 -58 4z m338
-114 c3 -5 -1 -10 -9 -10 -8 0 -18 5 -21 10 -3 6 1 10 9 10 8 0 18 -4 21 -10z
m-424 -101 c69 -79 72 -84 118 -173 21 -42 41 -72 45 -68 4 3 4 -1 1 -10 -4
-9 1 -28 10 -42 19 -29 38 -99 24 -90 -5 3 -9 10 -9 15 0 5 -5 15 -11 22 -5 7
-18 28 -27 47 -16 33 -62 56 -62 32 0 -15 -30 -8 -40 8 -5 8 -6 18 -3 22 2 5
-1 16 -8 24 -10 12 -9 13 4 8 8 -3 19 -13 22 -22 6 -15 8 -15 15 3 4 12 2 28
-6 40 -8 11 -14 24 -14 30 0 5 5 3 10 -5 5 -8 10 -12 10 -7 0 8 -21 48 -30 57
-3 3 -23 34 -44 70 -22 36 -49 73 -59 83 -11 9 -15 17 -10 17 6 0 35 -28 64
-61z m248 -154 c0 -5 -4 -3 -9 5 -5 8 -9 22 -9 30 0 16 17 -16 18 -35z m419
-20 c-3 -3 -9 2 -12 12 -6 14 -5 15 5 6 7 -7 10 -15 7 -18z m-1290 -81 c-20
-125 -15 -332 10 -434 27 -106 27 -117 1 -60 -30 65 -59 212 -59 296 0 100 40
298 56 281 3 -2 -1 -39 -8 -83z m898 51 c16 -39 19 -69 3 -42 -5 9 -17 17 -24
17 -16 0 -19 18 -9 44 9 23 13 20 30 -19z m-224 -90 c0 -5 -5 -11 -11 -13 -6
-2 -11 4 -11 13 0 9 5 15 11 13 6 -2 11 -8 11 -13z m-32 -69 c0 -6 -7 -1 -15
10 -9 12 -14 14 -15 6 0 -15 -20 -6 -20 9 0 6 5 7 10 4 6 -3 10 2 10 12 1 14
4 13 15 -7 8 -14 14 -29 15 -34z m-623 -28 c-3 -8 -6 -5 -6 6 -1 11 2 17 5 13
3 -3 4 -12 1 -19z m499 -118 c10 0 11 -6 5 -22 -4 -13 -6 -30 -3 -38 3 -10 1
-12 -5 -5 -9 10 -44 127 -42 142 0 5 7 -11 16 -34 8 -24 21 -43 29 -43z m-299
18 c-3 -8 -6 -5 -6 6 -1 11 2 17 5 13 3 -3 4 -12 1 -19z m-167 -28 c0 -10 5
-22 10 -25 6 -3 10 -16 9 -28 0 -12 -3 -16 -6 -9 -2 6 -11 12 -18 12 -7 0 -16
-6 -18 -12 -3 -7 -6 2 -6 21 -1 29 1 32 14 21 14 -11 14 -10 5 14 -13 34 -13
39 0 31 6 -3 10 -15 10 -25z m90 -28 c0 -13 -4 -20 -10 -17 -5 3 -10 21 -10
38 0 24 3 28 10 17 5 -8 10 -25 10 -38z m110 -31 c-1 -17 -30 36 -30 53 1 16
5 12 15 -13 8 -18 15 -36 15 -40z m28 43 c6 3 15 0 21 -8 10 -11 7 -14 -16
-13 -27 2 -43 13 -43 31 0 5 7 3 15 -4 8 -6 18 -9 23 -6z m-184 -123 c-6 -7
-11 2 -17 34 l-6 30 13 -30 c8 -16 12 -32 10 -34z m60 -83 c-1 -10 0 -18 5
-18 6 0 17 -24 40 -85 2 -5 -4 -1 -13 10 -17 20 -17 20 -6 -3 6 -12 15 -20 19
-18 5 3 16 -3 26 -14 10 -12 13 -20 7 -20 -7 0 -12 4 -12 10 0 6 -10 6 -27 -1
-33 -12 -38 -4 -46 64 -4 28 -11 55 -17 61 -17 17 -11 30 7 15 15 -13 15 -12
5 8 -7 12 -12 32 -12 45 1 21 2 20 14 -7 7 -16 12 -38 10 -47z m53 48 c-3 -7
6 -35 19 -62 23 -46 26 -46 8 1 -5 16 -4 17 5 9 7 -7 14 -29 16 -49 2 -21 9
-43 16 -49 9 -8 9 -6 0 12 -15 28 0 29 17 1 16 -25 15 -27 -23 -31 -27 -3 -31
1 -42 37 -30 99 -35 124 -29 134 10 16 19 14 13 -3z m-89 -21 c-3 -3 -9 2 -12
12 -6 14 -5 15 5 6 7 -7 10 -15 7 -18z m-70 -120 c-3 -3 -9 2 -12 12 -6 14 -5
15 5 6 7 -7 10 -15 7 -18z m1359 -7 c-3 -8 -6 -5 -6 6 -1 11 2 17 5 13 3 -3 4
-12 1 -19z m-116 -41 c-6 -8 -8 -16 -5 -19 3 -3 1 -9 -4 -12 -6 -3 -9 0 -8 6
2 16 15 38 23 38 3 0 0 -6 -6 -13z m-926 -17 c3 -5 1 -10 -4 -10 -6 0 -11 5
-11 10 0 6 2 10 4 10 3 0 8 -4 11 -10z m69 -32 c4 4 7 3 6 -3 -4 -18 0 -38 6
-32 3 3 15 -4 26 -15 15 -14 23 -17 31 -9 8 8 7 14 -2 24 -11 10 -13 9 -8 -5
4 -11 2 -15 -7 -12 -7 3 -13 11 -13 19 0 8 4 12 9 9 4 -3 8 1 8 8 0 7 7 3 15
-10 12 -17 13 -26 5 -42 -14 -27 -37 -15 -81 42 -19 24 -27 37 -18 31 9 -7 19
-9 23 -5z m103 -3 c0 -8 -4 -12 -9 -9 -5 3 -6 10 -3 15 9 13 12 11 12 -6z m41
-36 c-3 -8 -7 -3 -11 10 -4 17 -3 21 5 13 5 -5 8 -16 6 -23z m50 0 c3 -11 2
-12 -6 -1 -8 11 -10 11 -14 0 -3 -8 0 -22 8 -33 8 -10 14 -24 14 -29 0 -6 -9
3 -20 19 -25 37 -26 64 -3 61 9 -2 19 -9 21 -17z m125 -14 c4 -8 2 -17 -3 -20
-6 -4 -10 3 -10 14 0 25 6 27 13 6z m-306 -9 c4 -7 19 -19 32 -26 21 -11 22
-14 8 -22 -22 -12 -32 -5 -51 32 -14 29 -5 43 11 16z m89 -15 c-4 -5 0 -12 6
-14 7 -3 3 -6 -9 -6 -23 -1 -30 9 -16 22 10 10 25 8 19 -2z m221 -53 c-3 -7
-5 -2 -5 12 0 14 2 19 5 13 2 -7 2 -19 0 -25z m-740 15 c-4 -3 -1 -13 6 -22
11 -14 10 -14 -5 -2 -16 12 -16 31 -1 31 4 0 3 -3 0 -7z m86 -13 c3 -11 1 -18
-4 -14 -5 3 -9 12 -9 20 0 20 7 17 13 -6z m434 14 c-3 -3 -12 -4 -19 -1 -8 3
-5 6 6 6 11 1 17 -2 13 -5z m-580 -21 c-4 -3 -2 -12 4 -20 8 -9 8 -13 1 -13
-6 0 -14 5 -17 10 -6 10 2 30 12 30 4 0 3 -3 0 -7z m57 -29 c3 -8 2 -12 -4 -9
-6 3 -10 10 -10 16 0 14 7 11 14 -7z m87 -1 c13 -16 12 -17 -3 -4 -10 7 -18
15 -18 17 0 8 8 3 21 -13z m-106 -31 c-3 -3 -11 0 -18 7 -9 10 -8 11 6 5 10
-3 15 -9 12 -12z m830 -39 c-1 -33 -19 -83 -30 -83 -2 0 0 12 4 28 4 15 6 32
4 39 -4 10 13 53 20 53 1 0 2 -17 2 -37z m19 -395 c-25 -30 -57 -57 -67 -58
-5 0 10 18 33 40 45 44 64 53 34 18z m972 -690 c4 -7 3 -8 -4 -4 -7 4 -12 2
-12 -5 0 -7 -3 -10 -6 -6 -6 5 3 27 11 27 2 0 7 -5 11 -12z m-36 -102 c0 -2
-8 -10 -17 -17 -16 -13 -17 -12 -4 4 13 16 21 21 21 13z m-3 -90 c0 -8 -6 -12
-15 -9 -11 5 -11 7 0 14 7 5 13 9 14 9 0 0 1 -6 1 -14z m-37 0 c0 -2 -7 -7
-16 -10 -8 -3 -12 -2 -9 4 6 10 25 14 25 6z"/>
<path d="M1566 2217 c3 -10 9 -15 12 -12 3 3 0 11 -7 18 -10 9 -11 8 -5 -6z"/>
<path d="M1795 2676 c33 -7 74 -16 90 -20 23 -5 21 -3 -8 9 -21 8 -62 17 -90
20 l-52 5 60 -14z"/>
<path d="M1966 2625 c10 -8 24 -14 29 -14 6 0 1 6 -9 14 -11 8 -24 15 -30 15
-5 0 -1 -7 10 -15z"/>
<path d="M2021 2607 c2 -2 20 -14 39 -26 l35 -23 -30 26 c-16 14 -34 26 -39
26 -5 0 -7 -1 -5 -3z"/>
<path d="M2120 2541 c0 -6 4 -11 8 -11 8 0 86 -73 112 -107 8 -10 27 -37 43
-61 15 -23 30 -42 33 -42 6 0 1 9 -31 55 -45 66 -79 105 -121 140 -24 20 -44
32 -44 26z"/>
<path d="M882 2461 c-8 -4 -14 -12 -15 -17 -1 -5 -7 -9 -14 -10 -17 -3 -66
-39 -84 -61 -8 -10 1 -5 20 10 41 34 58 25 18 -9 -15 -13 -24 -24 -20 -24 5 0
35 27 68 60 53 54 64 75 27 51z m-27 -41 c-3 -5 -12 -10 -18 -10 -7 0 -6 4 3
10 19 12 23 12 15 0z"/>
<path d="M2057 2449 c7 -7 15 -10 18 -7 3 3 -2 9 -12 12 -14 6 -15 5 -6 -5z"/>
<path d="M2030 2431 c0 -6 4 -13 10 -16 6 -3 7 1 4 9 -7 18 -14 21 -14 7z"/>
<path d="M2094 2401 c18 -35 32 -45 41 -31 3 5 1 10 -5 10 -6 0 -9 4 -6 9 3 5
-6 16 -20 26 l-25 16 15 -30z"/>
<path d="M2150 2391 c0 -6 4 -13 10 -16 6 -3 7 1 4 9 -7 18 -14 21 -14 7z"/>
<path d="M729 2343 c-13 -16 -12 -17 4 -4 16 13 21 21 13 21 -2 0 -10 -8 -17
-17z"/>
<path d="M690 2305 c-7 -9 -10 -18 -7 -21 3 -3 10 4 17 15 13 25 8 27 -10 6z"/>
<path d="M740 2295 c-7 -9 -10 -18 -7 -21 3 -3 10 4 17 15 13 25 8 27 -10 6z"/>
<path d="M2320 2305 c0 -10 40 -75 47 -75 2 0 -6 17 -18 38 -28 45 -29 47 -29
37z"/>
<path d="M663 2258 c-15 -20 -25 -38 -20 -38 3 0 12 11 21 25 17 26 16 35 -1
13z"/>
<path d="M698 2235 c-10 -13 -18 -30 -17 -37 0 -7 5 -3 11 10 6 12 14 22 18
22 5 0 10 7 14 15 8 23 -7 17 -26 -10z"/>
<path d="M2370 2201 c0 -6 4 -13 10 -16 6 -3 7 1 4 9 -7 18 -14 21 -14 7z"/>
<path d="M655 2150 c-9 -16 -13 -30 -11 -30 3 0 12 14 21 30 9 17 13 30 11 30
-3 0 -12 -13 -21 -30z"/>
<path d="M621 2134 c0 -11 3 -14 6 -6 3 7 2 16 -1 19 -3 4 -6 -2 -5 -13z"/>
<path d="M2390 2138 c0 -3 7 -22 15 -41 8 -20 13 -42 12 -49 -2 -7 -2 -9 1 -5
2 4 10 0 18 -10 8 -10 2 9 -12 42 -25 58 -34 75 -34 63z"/>
<path d="M577 1990 c-13 -21 -15 -35 -9 -47 9 -14 10 -14 16 5 4 12 5 26 2 31
-4 5 -1 11 5 13 7 2 10 10 8 16 -2 7 -12 0 -22 -18z"/>
<path d="M2431 1974 c0 -11 3 -14 6 -6 3 7 2 16 -1 19 -3 4 -6 -2 -5 -13z"/>
<path d="M520 1908 c-15 -21 -17 -28 -6 -19 16 13 41 51 33 51 -2 0 -14 -15
-27 -32z"/>
<path d="M567 1913 c-4 -3 -7 -16 -7 -28 0 -11 -4 -25 -9 -30 -12 -12 -41
-254 -40 -320 2 -46 2 -45 10 20 17 159 28 232 39 265 9 28 20 100 15 100 -1
0 -5 -3 -8 -7z"/>
<path d="M2451 1894 c0 -11 3 -14 6 -6 3 7 2 16 -1 19 -3 4 -6 -2 -5 -13z"/>
<path d="M616 1854 c-4 -14 -5 -28 -3 -31 3 -2 8 8 11 23 4 14 5 28 3 31 -3 2
-8 -8 -11 -23z"/>
<path d="M459 1833 c-13 -16 -12 -17 4 -4 9 7 17 15 17 17 0 8 -8 3 -21 -13z"/>
<path d="M601 1774 c0 -11 3 -14 6 -6 3 7 2 16 -1 19 -3 4 -6 -2 -5 -13z"/>
<path d="M1986 1595 c4 -8 8 -15 10 -15 2 0 4 7 4 15 0 8 -4 15 -10 15 -5 0
-7 -7 -4 -15z"/>
<path d="M542 1585 c0 -11 4 -31 8 -45 6 -20 8 -21 8 -5 0 11 -4 31 -8 45 -6
20 -8 21 -8 5z"/>
<path d="M1200 1565 c29 -41 70 -67 70 -45 0 6 -5 10 -12 10 -7 0 -25 12 -42
28 -18 16 -25 19 -16 7z"/>
<path d="M1944 1428 c3 -12 0 -18 -10 -18 -8 0 -13 4 -10 8 3 5 0 9 -7 9 -7 0
-13 -8 -13 -18 0 -14 6 -17 23 -13 17 5 23 2 23 -10 0 -9 -5 -16 -11 -16 -5 0
-7 5 -4 11 4 6 -2 5 -14 -3 -22 -14 -28 -28 -11 -28 6 0 10 4 10 9 0 5 8 8 17
7 22 -1 29 36 13 61 -11 17 -11 17 -6 1z"/>
<path d="M590 1405 c0 -5 9 -23 20 -40 26 -39 26 -25 0 17 -11 18 -20 29 -20
23z"/>
<path d="M789 1396 c9 -11 9 -15 -1 -18 -9 -3 -8 -11 6 -32 9 -15 20 -25 23
-22 4 3 -2 14 -11 25 -11 12 -13 21 -7 25 12 8 3 36 -11 36 -6 0 -6 -6 1 -14z"/>
<path d="M1090 1399 c0 -5 5 -7 10 -4 6 3 10 8 10 11 0 2 -4 4 -10 4 -5 0 -10
-5 -10 -11z"/>
<path d="M1316 1363 c2 -7 -2 -13 -8 -13 -6 0 -9 -2 -6 -5 3 -3 16 -1 29 4 16
7 18 10 7 10 -9 1 -18 4 -21 9 -2 4 -2 1 -1 -5z"/>
<path d="M650 1308 c0 -9 5 -20 10 -23 13 -8 13 5 0 25 -8 13 -10 13 -10 -2z"/>
<path d="M1851 1113 c-1 -6 -4 -20 -7 -30 -5 -17 -5 -17 6 0 6 10 9 23 6 30
-3 9 -5 9 -5 0z"/>
<path d="M876 1027 c3 -10 9 -15 12 -12 3 3 0 11 -7 18 -10 9 -11 8 -5 -6z"/>
<path d="M980 984 c45 -17 74 -24 64 -14 -5 5 -25 12 -44 15 -19 3 -28 3 -20
-1z"/>
<path d="M1415 941 c-16 -3 -25 -9 -19 -13 13 -9 54 1 54 13 0 5 -1 8 -2 8 -2
-1 -16 -4 -33 -8z"/>
<path d="M1423 912 c-7 -4 -9 -13 -4 -21 6 -9 10 -7 14 8 3 12 4 21 4 21 -1 0
-7 -4 -14 -8z"/>
<path d="M1082 894 c10 -10 20 -16 22 -13 3 3 -5 11 -17 18 -21 13 -21 12 -5
-5z"/>
<path d="M1310 900 c-20 -6 -21 -8 -5 -8 11 0 29 3 40 8 25 11 -1 11 -35 0z"/>
<path d="M5 757 c1 -20 61 -127 71 -127 2 0 -8 25 -23 54 -15 30 -31 52 -36
49 -5 -3 -6 3 -3 15 4 11 3 23 -2 25 -4 3 -8 -4 -7 -16z"/>
<path d="M80 609 c0 -8 13 -36 30 -62 34 -53 26 -58 -41 -27 -24 11 -50 20
-56 20 -16 0 -18 -126 -3 -135 5 -3 10 -14 10 -25 0 -10 7 -21 16 -24 25 -9
54 -7 54 5 0 5 -4 8 -8 5 -5 -3 -9 1 -9 9 0 10 4 12 12 5 12 -10 35 6 35 25 0
5 -5 3 -10 -5 -7 -11 -12 -12 -20 -4 -8 8 -6 13 9 17 11 3 26 -1 32 -10 10
-11 14 -11 20 -1 5 7 6 -6 3 -29 -4 -41 7 -58 20 -30 3 6 3 1 0 -13 -9 -37
-24 -48 -26 -20 -1 14 -2 32 -4 40 -1 8 -2 21 -3 28 -1 6 -6 12 -12 12 -6 0
-8 -8 -5 -18 7 -22 -29 -82 -49 -82 -8 0 -15 -5 -15 -10 0 -16 -48 19 -53 38
-3 9 -5 -59 -6 -151 l-1 -169 135 3 c74 2 135 7 135 11 0 4 -4 8 -10 8 -5 0
-6 8 -3 17 5 14 8 12 16 -10 5 -15 13 -27 18 -27 5 0 5 9 -1 23 -5 12 -11 35
-15 50 -3 16 -10 25 -16 21 -8 -4 -9 1 -4 16 5 14 3 20 -3 16 -6 -4 -8 2 -5
14 3 11 -4 46 -15 78 -22 60 -34 109 -30 115 2 2 -3 11 -10 19 -13 16 -53 130
-48 136 2 1 12 -14 23 -35 11 -21 33 -65 50 -98 17 -33 37 -75 45 -93 14 -36
28 -42 25 -13 0 11 -4 18 -8 15 -12 -7 -21 15 -21 52 0 22 -5 34 -14 34 -8 0
-14 8 -14 18 0 9 -7 26 -15 36 -17 23 -20 40 -5 31 6 -3 10 -1 10 6 0 6 8 9
20 6 12 -3 18 -1 14 5 -3 5 -14 8 -23 6 -33 -9 -75 28 -113 98 -21 38 -38 62
-38 53z m-30 -223 c0 -3 -4 -8 -10 -11 -5 -3 -10 -1 -10 4 0 6 5 11 10 11 6 0
10 -2 10 -4z m92 -114 c-6 -2 -8 -17 -5 -38 4 -23 2 -34 -6 -34 -9 0 -11 15
-7 53 4 39 3 48 -5 37 -9 -13 -10 -12 -5 3 3 10 6 24 6 30 1 7 8 -1 17 -18 10
-19 12 -30 5 -33z m58 -14 c0 -25 -3 -29 -10 -18 -13 20 -13 50 0 50 6 0 10
-15 10 -32z m-34 -5 c-10 -10 -19 5 -10 18 6 11 8 11 12 0 2 -7 1 -15 -2 -18z
m-1 -42 c0 -16 -3 -27 -7 -24 -5 2 -8 15 -8 29 0 13 3 24 8 24 4 0 7 -13 7
-29z m25 -7 c0 -8 -4 -12 -10 -9 -5 3 -10 10 -10 16 0 5 5 9 10 9 6 0 10 -7
10 -16z m30 -20 c0 -35 -15 -30 -16 6 -1 16 3 27 7 24 5 -3 9 -16 9 -30z m-63
-86 c-3 -7 -5 -2 -5 12 0 14 2 19 5 13 2 -7 2 -19 0 -25z m85 -25 c-6 -2 -10
-8 -7 -12 6 -10 -53 -6 -63 4 -4 4 2 5 13 1 11 -3 27 -1 35 4 8 5 20 9 25 9 6
0 4 -3 -3 -6z m-32 -47 c0 -2 -7 -7 -16 -10 -8 -3 -12 -2 -9 4 6 10 25 14 25
6z"/>
<path d="M11 594 c0 -11 3 -14 6 -6 3 7 2 16 -1 19 -3 4 -6 -2 -5 -13z"/>
<path d="M510 603 c0 -13 28 -25 41 -17 5 3 9 -1 9 -8 0 -10 2 -10 9 1 6 10
24 12 66 9 39 -3 51 -2 40 5 -10 5 -46 7 -80 4 -38 -2 -68 0 -74 6 -8 8 -11 8
-11 0z"/>
<path d="M721 469 c-1 -41 2 -76 9 -84 7 -9 8 -15 0 -20 -5 -3 -10 -17 -10
-31 0 -14 -4 -22 -10 -19 -6 4 -7 -1 -3 -10 3 -10 1 -20 -4 -24 -6 -3 -7 -15
-3 -25 5 -16 9 -9 19 28 6 26 21 61 33 76 18 25 20 37 14 85 -9 75 -9 79 -21
87 -18 14 -21 8 -24 -63z m16 -51 c-3 -8 -6 -5 -6 6 -1 11 2 17 5 13 3 -3 4
-12 1 -19z m20 -20 c-3 -7 -5 -2 -5 12 0 14 2 19 5 13 2 -7 2 -19 0 -25z"/>
<path d="M430 506 c0 -2 8 -10 18 -17 15 -13 16 -12 3 4 -13 16 -21 21 -21 13z"/>
<path d="M266 458 c3 -5 14 -6 23 -3 25 8 51 -23 30 -36 -11 -7 -10 -9 6 -9
16 0 21 -6 20 -30 0 -30 -9 -39 -20 -20 -3 6 -14 10 -23 9 -12 0 -11 -3 6 -9
27 -11 29 -27 3 -35 -12 -3 -19 -14 -18 -25 1 -11 3 -20 5 -20 11 0 72 75 63
78 -18 6 -13 22 7 22 9 0 13 4 7 8 -5 4 -17 16 -25 26 -14 18 -13 18 9 11 16
-5 21 -4 17 4 -4 6 -16 11 -27 11 -24 0 -25 17 -1 23 9 2 -6 4 -35 4 -28 -1
-49 -5 -47 -9z"/>
<path d="M220 419 c0 -4 7 -20 15 -35 8 -16 15 -22 15 -13 0 14 -29 61 -30 48z"/>
<path d="M2 375 c0 -16 2 -22 5 -12 2 9 2 23 0 30 -3 6 -5 -1 -5 -18z"/>
<path d="M100 360 c0 -5 5 -10 10 -10 6 0 10 5 10 10 0 6 -4 10 -10 10 -5 0
-10 -4 -10 -10z"/>
<path d="M288 343 c7 -3 16 -2 19 1 4 3 -2 6 -13 5 -11 0 -14 -3 -6 -6z"/>
<path d="M563 268 c16 -10 117 -10 117 0 0 4 -29 7 -64 7 -35 0 -59 -3 -53 -7z"/>
<path d="M316 151 c11 -41 33 -87 34 -70 0 8 -9 33 -20 55 -12 21 -18 28 -14
15z"/>
<path d="M702 120 c0 -14 2 -19 5 -12 2 6 2 18 0 25 -3 6 -5 1 -5 -13z"/>
<path d="M2380 55 c-7 -9 -8 -15 -2 -15 5 0 12 7 16 15 3 8 4 15 2 15 -2 0 -9
-7 -16 -15z"/>
<path d="M353 33 c1 -19 7 -33 15 -33 9 0 10 5 4 18 -5 9 -12 24 -15 32 -3 8
-4 0 -4 -17z"/>
<path d="M2339 13 c-13 -16 -12 -17 4 -4 9 7 17 15 17 17 0 8 -8 3 -21 -13z"/>
</g>
</svg>
